<?xml version="1.0" standalone="no"?><!DOCTYPE svg PUBLIC "-//W3C//DTD SVG 1.1//EN" "http://www.w3.org/Graphics/SVG/1.1/DTD/svg11.dtd"><svg t="1583735861338" class="icon" viewBox="0 0 1025 1024" version="1.1" xmlns="http://www.w3.org/2000/svg" p-id="4133" xmlns:xlink="http://www.w3.org/1999/xlink" width="200.1953125" height="200"><defs><style type="text/css">@font-face { font-family: "Didact Gothic"; font-style: normal; font-weight: 700; src: url("chrome-extension://__MSG_@@extension_id__/assets/fonts/DidactGothic-Regular.woff"); }
</style></defs><path d="M34.816 931.328c-18.432 0-31.232-12.8-31.232-31.232 0-184.32 118.272-349.184 290.304-409.6-78.848-48.128-126.976-133.12-126.976-226.304C166.912 118.272 285.696 0 431.104 0s264.192 118.784 264.192 264.192c0 143.872-112.128 260.096-255.488 264.192h-2.56c-204.8 0-371.712 166.912-371.712 371.712 0.512 18.432-12.288 31.232-30.72 31.232zM431.104 61.952c-111.616 0-201.728 90.624-201.728 201.728S320 465.92 431.104 465.92s201.728-90.624 201.728-201.728S542.72 61.952 431.104 61.952z" p-id="4134"></path><path d="M745.472 1023.488c-20.48 0-41.984-2.048-62.464-6.656l-18.432-3.072-27.136-79.872c-2.56-7.168-10.752-12.8-18.432-12.8h-2.56l-85.504 13.312-12.288-12.288c-10.24-10.24-19.968-23.552-27.136-38.4-11.264-19.456-17.92-35.328-22.016-50.176l-6.144-15.872 56.832-64c5.632-7.168 5.12-17.92 0.512-22.528l-0.512-0.512-54.784-66.56 6.144-15.872c10.24-30.72 26.624-59.392 50.688-87.552l0.512-0.512 12.288-12.288 81.408 13.312h2.56c7.68 0 16.896-5.632 20.48-13.312l29.184-78.848 15.872-3.072c19.456-4.096 39.936-6.656 60.416-6.656 20.48 0 41.472 2.048 62.464 6.656l17.92 3.072 27.648 77.824c2.56 8.192 11.776 14.848 20.48 14.848h2.56l83.456-11.264 12.288 12.288 0.512 0.512c11.264 13.824 19.968 24.576 26.624 39.936 5.12 8.704 9.728 20.48 14.848 31.744 1.536 3.584 3.072 7.68 4.608 11.264l6.656 16.384-54.784 66.048c-5.632 6.656-5.632 18.432 0 25.6l54.784 63.488-6.656 16.384c-12.8 35.328-29.184 64-48.64 85.504L957.44 931.84l-83.456-13.312h-2.56c-7.68 0-15.872 5.632-18.432 12.8l-29.696 81.92-16.384 3.072c-19.968 5.12-40.96 7.168-61.44 7.168z m-29.696-63.488c10.24 1.536 20.992 2.048 31.744 2.048 10.752 0 21.504-0.512 31.744-2.048l16.896-47.616c10.24-31.232 42.496-54.272 76.288-54.272 4.608 0 9.216 0.512 13.312 1.536l46.592 7.168c7.168-10.24 15.36-23.552 20.992-37.888l-30.208-35.84c-25.088-29.696-26.112-75.776-2.048-103.936l31.744-37.376c-3.072-6.144-6.656-13.312-11.264-20.992l-0.512-0.512c-3.072-6.656-6.656-11.776-10.752-17.408l-49.152 5.632c-3.072 0.512-6.656 0.512-9.728 0.512-35.84 0-68.096-23.04-79.36-56.32l-14.848-43.008c-10.24-1.536-20.48-2.048-30.72-2.048s-20.48 0.512-30.72 2.048l-16.896 45.568c-10.24 31.232-43.008 54.272-77.824 54.272-4.608 0-9.728-0.512-14.336-1.536l-47.104-7.68c-8.192 11.264-14.848 24.064-20.992 37.376 0 0.512-0.512 1.024-0.512 1.536l31.744 37.376c24.576 29.184 24.576 74.752 0 103.936l-32.256 37.888c3.584 7.68 6.656 14.336 11.776 22.528l0.512 0.512c3.072 6.144 6.144 10.752 9.728 14.848l52.224-7.68c3.584-0.512 6.656-0.512 10.24-0.512 35.84 0 68.096 23.04 79.36 56.32l14.336 45.568z" p-id="4135"></path><path d="M746.496 847.36c-58.368 0-105.472-47.104-105.472-105.472s47.104-105.472 105.472-105.472c58.368 0 105.472 47.104 105.472 105.472 0 57.344-48.64 105.472-105.472 105.472z m0-148.48c-24.064 0-43.008 18.944-43.008 43.008s18.944 43.008 43.008 43.008 43.008-18.944 43.008-43.008-18.944-43.008-43.008-43.008z" p-id="4136"></path></svg>