<?xml version="1.0" standalone="no"?><!DOCTYPE svg PUBLIC "-//W3C//DTD SVG 1.1//EN" "http://www.w3.org/Graphics/SVG/1.1/DTD/svg11.dtd"><svg t="1583742528173" class="icon" viewBox="0 0 1024 1024" version="1.1" xmlns="http://www.w3.org/2000/svg" p-id="22292" xmlns:xlink="http://www.w3.org/1999/xlink" width="200" height="200"><defs><style type="text/css">@font-face { font-family: "Didact Gothic"; font-style: normal; font-weight: 700; src: url("chrome-extension://__MSG_@@extension_id__/assets/fonts/DidactGothic-Regular.woff"); }
</style></defs><path d="M515.281455 1024h-6.888728A1393.058909 1393.058909 0 0 1 227.770182 856.203636C166.004364 798.021818 97.442909 712.145455 97.442909 681.518545V188.369455a52.177455 52.177455 0 0 1 44.497455-51.2L515.281455 0l369.850181 136.983273a48.453818 48.453818 0 0 1 41.099637 51.2v493.381818c0 30.440727-68.561455 116.363636-130.327273 174.685091a1386.030545 1386.030545 0 0 1-276.805818 165.888l-2.420364 1.163636-1.396363 0.698182zM518.679273 243.153455a144.756364 144.756364 0 0 0-37.655273 284.25309v239.709091a34.350545 34.350545 0 0 0 34.257455 34.257455 36.584727 36.584727 0 0 0 34.257454-34.257455V660.945455h75.357091a35.281455 35.281455 0 0 0 34.257455-37.655273 37.515636 37.515636 0 0 0-34.257455-37.655273l-68.514909 3.397818v-61.626182a144.756364 144.756364 0 0 0-37.701818-284.25309z" p-id="22293"></path></svg>