<?xml version="1.0" standalone="no"?><!DOCTYPE svg PUBLIC "-//W3C//DTD SVG 1.1//EN" "http://www.w3.org/Graphics/SVG/1.1/DTD/svg11.dtd"><svg t="1583742854030" class="icon" viewBox="0 0 1024 1024" version="1.1" xmlns="http://www.w3.org/2000/svg" p-id="28797" xmlns:xlink="http://www.w3.org/1999/xlink" width="200" height="200"><defs><style type="text/css">@font-face { font-family: "Didact Gothic"; font-style: normal; font-weight: 700; src: url("chrome-extension://__MSG_@@extension_id__/assets/fonts/DidactGothic-Regular.woff"); }
</style></defs><path d="M342.558118 105.411765c17.046588 0 31.623529 5.903059 43.851294 17.709176a57.825882 57.825882 0 0 1 18.130823 43.248941v246.061177a59.753412 59.753412 0 0 1-18.130823 43.851294 59.331765 59.331765 0 0 1-43.851294 18.191059H96.737882a57.825882 57.825882 0 0 1-43.248941-18.191059 60.175059 60.175059 0 0 1-17.709176-43.730824V166.490353c0-16.986353 5.842824-31.503059 17.709176-43.248941a58.729412 58.729412 0 0 1 43.248941-17.709177h245.820236V105.411765z m0 492.122353c17.046588 0 31.623529 5.842824 43.851294 17.709176a57.825882 57.825882 0 0 1 18.130823 43.248941v246.964706a58.368 58.368 0 0 1-18.130823 43.369412 60.235294 60.235294 0 0 1-43.851294 17.709176H96.737882a58.729412 58.729412 0 0 1-43.248941-17.709176 58.428235 58.428235 0 0 1-17.709176-43.248941v-246.964706a58.428235 58.428235 0 0 1 17.709176-43.248941 58.729412 58.729412 0 0 1 43.248941-17.709177h245.820236V597.534118z m492.724706 0a58.428235 58.428235 0 0 1 43.188705 17.709176 58.729412 58.729412 0 0 1 17.709177 43.248941v246.964706a58.428235 58.428235 0 0 1-17.709177 43.369412 58.729412 58.729412 0 0 1-43.248941 17.709176h-245.76a60.175059 60.175059 0 0 1-43.730823-17.709176 58.368 58.368 0 0 1-18.191059-43.369412v-246.844235c0-17.167059 6.083765-31.503059 18.191059-43.248941 12.167529-11.866353 26.684235-17.709176 43.670588-17.709177h245.820235V597.534118z m136.734117-383.87953c13.131294 13.131294 19.696941 28.551529 19.696941 46.260706a59.994353 59.994353 0 0 1-19.696941 45.176471l-182.874353 183.296a62.644706 62.644706 0 0 1-45.778823 19.636706 62.644706 62.644706 0 0 1-45.718589-19.636706l-182.874352-183.115294a61.861647 61.861647 0 0 1-18.733177-45.236706c0-17.709176 6.204235-33.129412 18.672941-46.260706L697.705412 30.780235c13.131294-12.528941 28.310588-18.793412 45.658353-18.793411 17.408 0 32.527059 6.264471 45.778823 18.793411l182.934588 182.874353z" p-id="28798"></path></svg>